<?xml version="1.0" encoding="UTF-8"?>
<svg version="1.1" xmlns="http://www.w3.org/2000/svg" width="200" height="200">
<path d="M0 0 C66 0 132 0 200 0 C200 66 200 132 200 200 C134 200 68 200 0 200 C0 134 0 68 0 0 Z " fill="#304945" transform="translate(0,0)"/>
<path d="M0 0 C21.04915433 -0.62367865 21.04915433 -0.62367865 27 4 C29.24341201 6.33560702 29.95236498 7.54524435 30.29296875 10.796875 C30.25816406 11.77140625 30.22335938 12.7459375 30.1875 13.75 C30.16042969 14.73484375 30.13335937 15.7196875 30.10546875 16.734375 C30.07066406 17.48203125 30.03585938 18.2296875 30 19 C28.35 19 26.7 19 25 19 C24.91363281 18.31292969 24.82726562 17.62585938 24.73828125 16.91796875 C24.59777344 16.01691406 24.45726563 15.11585937 24.3125 14.1875 C24.18488281 13.29417969 24.05726562 12.40085937 23.92578125 11.48046875 C23.17777243 8.83814172 23.17777243 8.83814172 20.8125 7.21875 C17.64755042 5.84727185 15.12360963 5.50129723 11.6875 5.3125 C9.810625 5.209375 7.93375 5.10625 6 5 C6 9.95 6 14.9 6 20 C4.02 20 2.04 20 0 20 C0 13.4 0 6.8 0 0 Z " fill="#E5EBEB" transform="translate(84,72)"/>
<path d="M0 0 C1.65 0 3.3 0 5 0 C6.32 2.97 7.64 5.94 9 9 C10.32 6.03 11.64 3.06 13 0 C14.32 0 15.64 0 17 0 C15.75971762 6.17222879 14.10396411 12.06682122 12 18 C10.02 18 8.04 18 6 18 C4.99600476 15.37646482 3.99665555 12.75132205 3 10.125 C2.57074219 9.00544922 2.57074219 9.00544922 2.1328125 7.86328125 C0 2.2265625 0 2.2265625 0 0 Z " fill="#EEF3F3" transform="translate(139,109)"/>
<path d="M0 0 C1.65 0 3.3 0 5 0 C5.99 3.3 6.98 6.6 8 10 C8.66 10 9.32 10 10 10 C10.66 7.03 11.32 4.06 12 1 C13.65 0.67 15.3 0.34 17 0 C15.41039668 6.23440168 13.72399099 12.16287645 11 18 C9.35 18 7.7 18 6 18 C4.9936345 15.56495491 3.99473587 13.12729136 3 10.6875 C2.71382812 9.99720703 2.42765625 9.30691406 2.1328125 8.59570312 C0.91089256 5.58454326 0 3.28113016 0 0 Z " fill="#EFF4F4" transform="translate(44,109)"/>
<path d="M0 0 C1.98 0 3.96 0 6 0 C6 5.94 6 11.88 6 18 C4.02 18 2.04 18 0 18 C0 12.06 0 6.12 0 0 Z " fill="#E0E6E6" transform="translate(84,109)"/>
<path d="M0 0 C1.65 0 3.3 0 5 0 C12 15.35025381 12 15.35025381 12 20 C10.35 20 8.7 20 7 20 C5.8278551 17.04380781 4.66322524 14.08471211 3.5 11.125 C3.16613281 10.28324219 2.83226562 9.44148438 2.48828125 8.57421875 C2.01455078 7.36572266 2.01455078 7.36572266 1.53125 6.1328125 C1.23798828 5.38918457 0.94472656 4.64555664 0.64257812 3.87939453 C0 2 0 2 0 0 Z " fill="#E6EDEC" transform="translate(30,72)"/>
<path d="M0 0 C1.65 0 3.3 0 5 0 C6.33819498 2.6226232 7.6707151 5.24786599 9 7.875 C9.3815625 8.62136719 9.763125 9.36773437 10.15625 10.13671875 C10.5171875 10.85214844 10.878125 11.56757812 11.25 12.3046875 C11.58515625 12.96452637 11.9203125 13.62436523 12.265625 14.30419922 C13 16 13 16 13 18 C11.35 18 9.7 18 8 18 C6.6589995 15.5664433 5.32705144 13.12864699 4 10.6875 C3.6184375 9.99720703 3.236875 9.30691406 2.84375 8.59570312 C0 3.33984375 0 3.33984375 0 0 Z " fill="#ECF2F2" transform="translate(105,109)"/>
<path d="M0 0 C1.65 0 3.3 0 5 0 C6.00605593 2.60197202 7.00502525 5.20629362 8 7.8125 C8.28617188 8.55048828 8.57234375 9.28847656 8.8671875 10.04882812 C9.13789063 10.76103516 9.40859375 11.47324219 9.6875 12.20703125 C10.06455078 13.18893433 10.06455078 13.18893433 10.44921875 14.19067383 C11 16 11 16 11 19 C9.35 19 7.7 19 6 19 C4.99394407 16.39802798 3.99497475 13.79370638 3 11.1875 C2.57074219 10.08051758 2.57074219 10.08051758 2.1328125 8.95117188 C1.86210938 8.23896484 1.59140625 7.52675781 1.3125 6.79296875 C1.06113281 6.1383667 0.80976562 5.48376465 0.55078125 4.80932617 C0 3 0 3 0 0 Z " fill="#EBF1F1" transform="translate(126,72)"/>
<path d="M0 0 C1.65 0 3.3 0 5 0 C4.2531799 4.42083165 2.88289994 8.58156741 1.4375 12.8125 C1.20353516 13.50537109 0.96957031 14.19824219 0.72851562 14.91210938 C0.15508324 16.60900114 -0.42208169 18.30463078 -1 20 C-2.65 20 -4.3 20 -6 20 C-4.63125844 13.04223041 -2.5466871 6.61396893 0 0 Z " fill="#E4EBEA" transform="translate(69,72)"/>
<path d="M0 0 C1.65 0 3.3 0 5 0 C2.94235079 6.45353615 0.57616518 12.7361263 -2 19 C-3.32 19 -4.64 19 -6 19 C-4.70024676 12.28460827 -2.70071112 6.27980887 0 0 Z " fill="#EBF2F2" transform="translate(165,72)"/>
<path d="M0 0 C2.14255793 -0.38932856 2.14255793 -0.38932856 4 -1 C4 -0.01 4 0.98 4 2 C5.32 2.33 6.64 2.66 8 3 C7.37609375 3.07089844 6.7521875 3.14179687 6.109375 3.21484375 C3.80770679 3.80004532 3.80770679 3.80004532 2.953125 6.06640625 C2.60507812 7.30197266 2.60507812 7.30197266 2.25 8.5625 C2.00765625 9.38878906 1.7653125 10.21507813 1.515625 11.06640625 C1.34546875 11.70449219 1.1753125 12.34257813 1 13 C0.34 13 -0.32 13 -1 13 C-1.99 9.7 -2.98 6.4 -4 3 C-5.98 3.33 -7.96 3.66 -10 4 C-10 3.34 -10 2.68 -10 2 C-3.375 -1.125 -3.375 -1.125 0 0 Z " fill="#3B4F4C" transform="translate(53,106)"/>
<path d="M0 0 C1.32 0.33 2.64 0.66 4 1 C3.95875 1.7425 3.9175 2.485 3.875 3.25 C4.00689108 6.15160379 4.62708683 7.49645245 6 10 C6.36784131 11.3242287 6.71202981 12.65613912 7 14 C6.67 13.34 6.34 12.68 6 12 C4.35 11.67 2.7 11.34 1 11 C0.67 7.37 0.34 3.74 0 0 Z " fill="#5F7270" transform="translate(150,97)"/>
<path d="M0 0 C1.48550695 2.97101391 0.82306972 4.83434722 0 8 C-1.9375 10.375 -1.9375 10.375 -4 12 C-4.66 12 -5.32 12 -6 12 C-5.57630928 10.3713449 -5.1355377 8.74712622 -4.6875 7.125 C-4.44386719 6.22007813 -4.20023438 5.31515625 -3.94921875 4.3828125 C-3 2 -3 2 0 0 Z " fill="#3B4F4C" transform="translate(61,115)"/>
<path d="M0 0 C1.32 0.33 2.64 0.66 4 1 C4 2.98 4 4.96 4 7 C2.68 6.67 1.36 6.34 0 6 C0 4.02 0 2.04 0 0 Z " fill="#A0B0AF" transform="translate(110,97)"/>
<path d="M0 0 C0.99 0.33 1.98 0.66 3 1 C3 2.98 3 4.96 3 7 C2.01 7 1.02 7 0 7 C0 4.69 0 2.38 0 0 Z " fill="#8BA09D" transform="translate(131,97)"/>
</svg>
